<?xml version="1.0" standalone="no"?>
<!DOCTYPE svg PUBLIC "-//W3C//DTD SVG 20010904//EN"
 "http://www.w3.org/TR/2001/REC-SVG-20010904/DTD/svg10.dtd">
<svg version="1.0" xmlns="http://www.w3.org/2000/svg"
 width="1024.000000pt" height="1024.000000pt" viewBox="0 0 1024.000000 1024.000000"
 preserveAspectRatio="xMidYMid meet">

<g transform="translate(0.000000,1024.000000) scale(0.100000,-0.100000)"
fill="#000000" stroke="none">
<path d="M678 10230 c-85 -15 -162 -41 -253 -88 -73 -37 -108 -64 -185 -142
-78 -77 -105 -112 -143 -186 -25 -50 -56 -126 -69 -170 l-23 -79 0 -4445 0
-4445 23 -79 c13 -44 44 -120 69 -170 38 -74 65 -109 143 -186 77 -78 112
-105 186 -143 50 -25 126 -56 170 -69 l79 -23 4445 0 4445 0 79 23 c44 13 120
44 170 69 74 38 109 65 186 143 78 77 105 112 143 186 25 50 56 126 69 170
l23 79 0 4445 0 4445 -23 79 c-13 44 -44 120 -69 170 -38 74 -65 109 -143 186
-77 78 -112 105 -185 142 -50 26 -124 57 -165 70 l-75 23 -4425 1 c-2434 1
-4446 -2 -4472 -6z m4762 -1664 c458 -19 542 -29 735 -93 392 -129 740 -439
913 -813 257 -557 170 -1177 -231 -1642 -92 -108 -294 -274 -294 -243 0 8 5
13 10 12 5 -1 12 4 14 11 3 6 -2 12 -11 12 -9 0 -16 7 -16 16 0 12 -7 15 -25
12 -13 -3 -22 -1 -19 4 10 16 -68 74 -85 63 -6 -3 -18 9 -27 27 -9 19 -29 40
-46 47 -17 8 -27 19 -24 26 3 10 -3 12 -22 10 -15 -2 -21 -2 -14 1 6 3 12 10
12 15 0 12 -37 12 -42 0 -1 -5 -9 -3 -16 5 -11 12 -9 14 10 15 18 0 15 3 -12
12 -19 7 -38 9 -41 5 -3 -5 -12 4 -20 19 -8 16 -26 41 -42 56 -15 16 -25 32
-22 37 5 8 -19 20 -38 19 -7 0 -3 -4 7 -8 17 -7 18 -8 3 -14 -12 -4 -18 0 -23
17 -3 13 -14 26 -25 29 -10 3 -23 16 -28 29 l-10 23 0 -23 c-1 -14 -5 -21 -12
-16 -6 3 -9 14 -6 24 3 12 -2 20 -15 23 -13 4 -17 10 -13 19 6 10 5 11 -6 1
-13 -13 -38 -19 -26 -7 10 10 -12 45 -26 42 -7 -1 -24 9 -39 23 l-26 25 49 11
c116 28 254 119 333 219 254 324 140 801 -236 989 -142 71 -169 74 -873 100
-77 3 -188 8 -247 11 l-108 6 -2 -358 c-1 -198 -4 -311 -5 -252 -2 67 -9 117
-18 134 -9 19 -11 32 -4 40 7 8 2 14 -16 18 -16 4 -23 11 -19 19 5 9 4 9 -6 0
-16 -15 -40 5 -32 27 5 12 3 13 -10 2 -18 -14 -31 -3 -42 36 -4 12 -12 22 -17
22 -5 0 -8 -3 -6 -7 2 -8 -6 -13 -24 -13 -5 0 -7 5 -4 10 3 6 -2 10 -11 10
-10 0 -14 3 -11 7 11 10 -13 32 -29 26 -8 -3 -14 1 -14 11 0 9 -5 16 -11 16
-6 0 -9 9 -6 20 3 14 1 18 -6 13 -19 -12 -37 -12 -37 -1 0 15 -27 38 -44 38
-9 0 -16 7 -16 15 0 8 -8 15 -18 15 -20 0 -42 18 -42 35 0 5 5 2 11 -7 5 -10
17 -18 26 -18 14 0 14 3 -3 21 -12 13 -27 19 -41 16 -26 -5 -27 -3 -12 25 10
18 8 19 -11 13 -17 -5 -20 -4 -15 5 6 9 0 11 -24 8 -26 -4 -31 -1 -32 16 0 12
-3 15 -6 9 -7 -19 -33 10 -33 36 0 14 -6 21 -20 21 -11 0 -20 -5 -20 -11 0 -5
-5 -7 -11 -4 -6 4 -8 13 -5 20 5 15 -37 55 -59 55 -8 0 -15 7 -15 15 0 8 -3
14 -7 14 -23 -4 -31 4 -28 26 2 27 -5 31 -22 14 -8 -8 -14 -5 -23 11 -9 16
-14 19 -20 10 -5 -8 -10 -3 -14 14 -14 57 -26 20 -29 -91 -1 -65 -4 82 -5 326
l-2 443 588 -5 c323 -3 756 -12 962 -21z m-730 -1272 c0 -8 -19 -13 -24 -6 -3
5 1 9 9 9 8 0 15 -2 15 -3z m1098 -921 c-15 -2 -42 -2 -60 0 -18 2 -6 4 27 4
33 0 48 -2 33 -4z m306 -224 c-3 -5 -10 -7 -15 -3 -5 3 -7 10 -3 15 3 5 10 7
15 3 5 -3 7 -10 3 -15z m436 -333 c0 -3 -4 -8 -10 -11 -5 -3 -10 -1 -10 4 0 6
5 11 10 11 6 0 10 -2 10 -4z m0 -61 c0 -2 -10 -9 -22 -15 -22 -11 -22 -10 -4
4 21 17 26 19 26 11z"/>
<path d="M4506 7461 c-4 -5 3 -7 14 -4 23 6 26 13 6 13 -8 0 -17 -4 -20 -9z"/>
<path d="M4585 7430 c-3 -5 -1 -10 4 -10 6 0 11 5 11 10 0 6 -2 10 -4 10 -3 0
-8 -4 -11 -10z"/>
<path d="M6418 5953 c7 -3 16 -2 19 1 4 3 -2 6 -13 5 -11 0 -14 -3 -6 -6z"/>
</g>
</svg>
